<mxfile host="app.diagrams.net" modified="2023-12-06T11:50:17.419Z" agent="Mozilla/5.0 (Windows NT 10.0; Win64; x64) AppleWebKit/537.36 (KHTML, like Gecko) Chrome/119.0.0.0 Safari/537.36" version="22.1.5" etag="Kl8U9CWD0gxh0aeSrdgD" type="github">
  <diagram name="Page-1" id="DJnSUCSd2gqESX1FiNYE">
    <mxGraphModel>
      <root>
        <mxCell id="0" />
        <mxCell id="1" parent="0" />
      </root>
    </mxGraphModel>
  </diagram>
</mxfile>
